# AST/ASF file generated using VICON BodyLanguage
# -----------------------------------------------
:version 1.10
:name VICON
:units
  mass 1.0
  length 0.45
  angle deg
:documentation
   .ast/.asf automatically generated from VICON data using
   VICON BodyBuilder and BodyLanguage model FoxedUp or BRILLIANT.MOD
:root
   order TX TY TZ RX RY RZ
   axis XYZ
   position 0 0 0  
   orientation 0 0 0 
:bonedata
  begin
     id 1 
     name lhipjoint
     direction 0.577973 -0.728611 0.367523 
     length 2.48544 
     axis 0 0 0  XYZ
  end
  begin
     id 2 
     name lfemur
     direction 0.34202 -0.939693 0  
     length 7.1921  
     axis 0 0 20  XYZ
    dof rx ry rz
    limits (-160.0 20.0)
           (-70.0 70.0)
           (-60.0 70.0)
  end
  begin
     id 3 
     name ltibia
     direction 0.34202 -0.939693 0   
     length 7.71059   
     axis 0 0 20   XYZ
    dof rx
    limits (-10.0 170.0)
  end
  begin
     id 4 
     name lfoot
     direction 0.089538 -0.246004 0.965124   
     length 2.19909   
     axis -90 7.62852e-016 20   XYZ
    dof rx rz
    limits (-45.0 90.0)
           (-70.0 20.0)
  end
  begin
     id 5 
     name ltoes
     direction 1.53544e-011 -4.21829e-011 1   
     length 1.10116   
     axis -90 7.62852e-016 20   XYZ
    dof rx
    limits (-90.0 20.0)
  end
  begin
     id 6 
     name rhipjoint
     direction -0.554414 -0.743062 0.374812   
     length 2.4371  
     axis 0 0 0  XYZ 
  end
  begin
     id 7 
     name rfemur
     direction -0.34202 -0.939693 0   
     length 7.47254   
     axis 0 0 -20   XYZ
    dof rx ry rz
    limits (-160.0 20.0)
           (-70.0 70.0)
           (-70.0 60.0)
  end
  begin
     id 8 
     name rtibia
     direction -0.34202 -0.939693 0   
     length 7.65855   
     axis 0 0 -20   XYZ
    dof rx
    limits (-10.0 170.0)
 end
 begin
     id 9 
     name rfoot
     direction -0.133779 -0.367555 0.92033   
     length 2.43006  
     axis -90 -7.62852e-016 -20   XYZ
    dof rx rz
    limits (-45.0 90.0)
           (-20.0 70.0)
  end
  begin
     id 10 
     name rtoes
     direction -1.53563e-011 -4.21889e-011 1   
     length 1.19625   
     axis -90 -7.62852e-016 -20   XYZ
    dof rx
    limits (-90.0 20.0)
  end
  begin
     id 11 
     name lowerback
     direction 0.0249066 0.998043 -0.0573585   
     length 2.08485   
     axis 0 0 0   XYZ
    dof rx ry rz
    limits (-20.0 45.0)
           (-30.0 30.0)
           (-30.0 30.0)
  end
  begin
     id 12 
     name upperback
     direction 0.0237884 0.999673 0.00943178   
     length 2.08515   
     axis 0 0 0   XYZ
    dof rx ry rz
    limits (-20.0 45.0)
           (-30.0 30.0)
           (-30.0 30.0)
  end
  begin
     id 13 
     name thorax
     direction 0.0106671 0.999301 0.0358174   
     length 2.09037   
     axis 0 0 0   XYZ
    dof rx ry rz
    limits (-20.0 45.0)
           (-30.0 30.0)
           (-30.0 30.0)
  end
  begin
     id 14 
     name lowerneck
     direction -0.0580016 0.987052 0.149546   
     length 1.84454   
     axis 0 0 0   XYZ
    dof rx ry rz
    limits (-20.0 45.0)
           (-30.0 30.0)
           (-30.0 30.0)
  end
  begin
     id 15 
     name upperneck
     direction 0.079456 0.981963 -0.171567   
     length 1.88141   
     axis 0 0 0   XYZ
    dof rx ry rz
    limits (-20.0 45.0)
           (-30.0 30.0)
           (-30.0 30.0)
  end
  begin
     id 16
     name head
     direction 0.0262167 0.9967 -0.0768276  
     length 1.89541  
     axis 0 0 0   XYZ
    dof rx ry rz
    limits (-20.0 45.0)
           (-30.0 30.0)
           (-30.0 30.0)
  end
  begin
     id 17 
     name lclavicle
     direction 0.946135 0.322134 -0.0325326  
     length 3.949  
     axis 0 0 0   XYZ
    dof ry rz
    limits (-20.0 10.0)
           (0.0 20.0)
  end
  begin
     id 18 
     name lhumerus
     direction 1 -4.48964e-011 1.94005e-028   
     length 5.10995   
     axis 180 -30 -90   XYZ
    dof rx ry rz
    limits (-60.0 90.0)
           (-90.0 90.0)
           (-90.0 90.0)
  end
  begin
     id 19
     name lradius
     direction 1 -4.48976e-011 2.87852e-027   
     length 3.21207   
     axis 180 -30 -90   XYZ
    dof rx
    limits (-10.0 170.0)
  end
  begin
     id 20
     name lwrist
     direction 1 -4.48963e-011 1.9975e-027   
     length 1.60604   
     axis 2.96054e-016 90 90   XYZ
    dof ry
    limits (-180.0 0.0)
 end
  begin
     id 21 
     name lhand
     direction 1 -4.48919e-011 4.00227e-027   
     length 0.63349   
     axis -2.5488e-015 90 90   XYZ
    dof rx rz
    limits (-90.0 90.0)
           (-45.0 45.0)
  end
  begin
     id 22 
     name lfingers
     direction 1 -4.49037e-011 7.9652e-027   
     length 0.510736   
     axis -5.0975e-015 90 90   XYZ
    dof rx
    limits (0.0 90.0)
  end
  begin
     id 23
     name lthumb
     direction 0.707107 -6.34922e-011 0.707107   
     length 0.733318   
     axis -90 45 -4.48553e-014   XYZ
    dof rx rz
    limits (-45.0 45.0)
           (-45.0 45.0)
  end
  begin
     id 24 
     name rclavicle
     direction -0.940085 0.328911 -0.0897654   
     length 3.93848  
     axis 0 0 0   XYZ 
    dof ry rz
    limits (-10.0 20.0)
           (-20.0 0.0)
  end
  begin
     id 25 
     name rhumerus
     direction -1 -4.48958e-011 3.02044e-027  
     length 5.25109   
     axis 180 30 90   XYZ
    dof rx ry rz
    limits (-90.0 60.0)
           (-90.0 90.0)
           (-90.0 90.0)
  end
  begin
     id 26 
     name rradius
     direction -1 -4.4897e-011 9.78352e-028   
     length 3.28364   
     axis 180 30 90   XYZ
    dof rx
    limits (-10.0 170.0)
  end
  begin
     id 27 
     name rwrist
     direction -1 -4.48943e-011 1.99918e-027   
     length 1.64182   
     axis 2.96054e-016 -90 -90   XYZ
    dof ry
    limits (-180.0 0.0)
  end
  begin
     id 28
     name rhand
     direction -1 -4.49024e-011 3.98478e-027   
     length 0.599745   
     axis -2.5488e-015 -90 -90   XYZ
    dof rx rz
    limits (-90.0 90.0)
           (-45.0 45.0)
  end
  begin
     id 29
     name rfingers
     direction -1 -4.48914e-011 8.00621e-027   
     length 0.48353   
     axis -5.0975e-015 -90 -90   XYZ
    dof rx
    limits (0.0 90.0)
  end
  begin
     id 30
     name rthumb
     direction -0.707107 -6.34992e-011 0.707107   
     length 0.694255   
     axis -90 -45 4.48553e-014   XYZ
    dof rx rz
    limits (-45.0 45.0)
           (-45.0 45.0)
  end
:hierarchy
  begin
    root lhipjoint rhipjoint lowerback
    lhipjoint lfemur
    lfemur ltibia
    ltibia lfoot
    lfoot ltoes
    rhipjoint rfemur
    rfemur rtibia
    rtibia rfoot
    rfoot rtoes
    lowerback upperback
    upperback thorax
    thorax lowerneck lclavicle rclavicle
    lowerneck upperneck
    upperneck head
    lclavicle lhumerus
    lhumerus lradius
    lradius lwrist
    lwrist lhand lthumb
    lhand lfingers
    rclavicle rhumerus
    rhumerus rradius
    rradius rwrist
    rwrist rhand rthumb
    rhand rfingers
  end

#!OML:ASF E:\CV Data\Top Level 1\Subject 1\Session 1\player.ASF
:FULLY-SPECIFIED
:DEGREES
50
root 5.08396 15.4414 16.1499 -2.31207 -3.76214 -4.76098
lowerback 7.28985 0.774638 2.42276
upperback 0.202248 1.34388 2.75388
thorax -3.89234 0.646133 1.3487
lowerneck -21.7358 -7.50018 -10.1594
upperneck 17.8055 -9.26311 9.33073
head 10.191 -3.92934 3.5249
rclavicle 4.78326e-015 2.78299e-015
rhumerus 29.2022 -0.502728 -66.4121
rradius 77.0664
rwrist 12.9458
rhand 10.7372 -7.52069
rfingers 7.12502
rthumb 35.8252 -33.88
lclavicle 4.78326e-015 2.78299e-015
lhumerus 18.0933 3.55725 73.5926
lradius 85.5282
lwrist -28.2953
lhand 8.66035 9.80956
lfingers 7.12502
lthumb 33.8546 36.6255
rfemur -23.4838 -7.86706 20.0157
rtibia 65.7748
rfoot -35.6308 -6.23514
rtoes -11.9625
lfemur -22.87 11.76 -8.68373
ltibia 63.0711
lfoot -32.1128 -1.59538
ltoes -13.1592
51
root 5.08358 15.441 16.1515 -2.30651 -3.76693 -4.76856
lowerback 7.29111 0.772963 2.42704
upperback 0.200236 1.34208 2.75255
thorax -3.89499 0.645126 1.34508
lowerneck -21.734 -7.49895 -10.1568
upperneck 17.7918 -9.26154 9.33203
head 10.1855 -3.92847 3.52513
rclavicle -7.15625e-015 -1.11319e-014
rhumerus 29.1991 -0.512001 -66.418
rradius 77.0854
rwrist 12.936
rhand 10.7215 -7.5092
rfingers 7.12502
rthumb 35.8103 -33.8721
lclavicle -7.15625e-015 -1.11319e-014
lhumerus 18.1004 3.56239 73.5799
lradius 85.5407
lwrist -28.2612
lhand 8.66078 9.81836
lfingers 7.12502
lthumb 33.8551 36.6342
rfemur -23.4871 -7.8642 20.0264
rtibia 65.7803
rfoot -35.6366 -6.23563
rtoes -11.9689
lfemur -22.8728 11.7666 -8.67119
ltibia 63.0828
lfoot -32.1226 -1.59875
ltoes -13.1735
52
root 5.0833 15.4405 16.1531 -2.30226 -3.77013 -4.77509
lowerback 7.29198 0.770142 2.43128
upperback 0.199917 1.33865 2.7508
thorax -3.89565 0.643322 1.34123
lowerneck -21.7336 -7.49654 -10.1524
upperneck 17.7749 -9.25846 9.33322
head 10.1789 -3.92678 3.52524
rclavicle -1.35484e-014 -1.03368e-014
rhumerus 29.1995 -0.520551 -66.4239
rradius 77.1005
rwrist 12.9313
rhand 10.7021 -7.49776
rfingers 7.12502
rthumb 35.7919 -33.8651
lclavicle -1.35484e-014 -1.03368e-014
lhumerus 18.1077 3.57239 73.5688
lradius 85.5535
lwrist -28.2327
lhand 8.66137 9.83041
lfingers 7.12502
lthumb 33.8556 36.6461
rfemur -23.4888 -7.86446 20.0347
rtibia 65.7854
rfoot -35.6425 -6.23624
rtoes -11.9805
lfemur -22.8743 11.7687 -8.66089
ltibia 63.0945
lfoot -32.1316 -1.59829
ltoes -13.1903
53
root 5.08311 15.4399 16.1547 -2.29944 -3.7723 -4.78088
lowerback 7.29181 0.766739 2.43493
upperback 0.201312 1.33432 2.74983
thorax -3.89397 0.641107 1.33864
lowerneck -21.7369 -7.49299 -10.1479
upperneck 17.759 -9.25315 9.33283
head 10.173 -3.92411 3.52508
rclavicle 1.00014e-014 1.31198e-014
rhumerus 29.2051 -0.528692 -66.4283
rradius 77.1107
rwrist 12.9308
rhand 10.6835 -7.48723
rfingers 7.12502
rthumb 35.7744 -33.8589
lclavicle 1.00014e-014 1.31198e-014
lhumerus 18.1141 3.58655 73.5612
lradius 85.566
lwrist -28.2109
lhand 8.65892 9.84421
lfingers 7.12502
lthumb 33.8533 36.6604
rfemur -23.488 -7.86677 20.041
rtibia 65.7898
rfoot -35.6492 -6.23686
rtoes -11.9918
lfemur -22.8745 11.7691 -8.65214
ltibia 63.1063
lfoot -32.1405 -1.59591
ltoes -13.2095
54
root 5.08302 15.4392 16.1562 -2.29637 -3.77572 -4.78605
lowerback 7.2904 0.763025 2.43792
upperback 0.203312 1.32946 2.74956
thorax -3.89099 0.638663 1.33722
lowerneck -21.7408 -7.48909 -10.1421
upperneck 17.7452 -9.2468 9.32806
head 10.1675 -3.92134 3.52331
rclavicle -4.03781e-015 -2.66371e-014
rhumerus 29.2142 -0.535216 -66.4324
rradius 77.1169
rwrist 12.9272
rhand 10.6685 -7.47826
rfingers 7.12502
rthumb 35.7601 -33.8534
lclavicle -4.03781e-015 -2.66371e-014
lhumerus 18.1211 3.60645 73.5574
lradius 85.577
lwrist -28.1984
lhand 8.65587 9.85922
lfingers 7.12502
lthumb 33.8504 36.6761
rfemur -23.488 -7.86991 20.0457
rtibia 65.7951
rfoot -35.6563 -6.23564
rtoes -12.003
lfemur -22.8758 11.7691 -8.645
ltibia 63.1198
lfoot -32.1487 -1.59345
ltoes -13.2193
